HIERARCHY
ROOT ui
{
	 OFFSET 0 0 0
	 CHANNELS 3 XPosition YPosition Z Position
	 EndSite
	 {
	 OFFSET 0 -1 0
	 }
}
ROOT li
{
	 OFFSET 0 0 0
	 CHANNELS 3 XPosition YPosition Z Position
	 EndSite
	 {
	 OFFSET 0 -1 0
	 }
}
ROOT ul
{
	 OFFSET 0 0 0
	 CHANNELS 3 XPosition YPosition Z Position
	 EndSite
	 {
	 OFFSET 0 -1 0
	 }
}
ROOT ll
{
	 OFFSET 0 0 0
	 CHANNELS 3 XPosition YPosition Z Position
	 EndSite
	 {
	 OFFSET 0 -1 0
	 }
}
ROOT tt
{
	 OFFSET 0 0 0
	 CHANNELS 3 XPosition YPosition Z Position
	 EndSite
	 {
	 OFFSET 0 -1 0
	 }
}
ROOT tb
{
	 OFFSET 0 0 0
	 CHANNELS 3 XPosition YPosition Z Position
	 EndSite
	 {
	 OFFSET 0 -1 0
	 }
}
ROOT td
{
	 OFFSET 0 0 0
	 CHANNELS 3 XPosition YPosition Z Position
	 EndSite
	 {
	 OFFSET 0 -1 0
	 }
}
ROOT v
{
	 OFFSET 0 0 0
	 CHANNELS 3 XPosition YPosition Z Position
	 EndSite
	 {
	 OFFSET 0 -1 0
	 }
}
ROOT bn
{
	 OFFSET 0 0 0
	 CHANNELS 3 XPosition YPosition Z Position
	 EndSite
	 {
	 OFFSET 0 -1 0
	 }
}
MOTION
Frames: 18
Frame Time: 0.002
-0.0018663959503173828	2.9977399110794065E-4	0		0.43546929931640627	-2.30960546875	0		-1.0347769775390625	-0.03669812774658203	0		-0.8605662231445312	-2.350507080078125	0		1.45178564453125	-0.5479625244140625	0		2.9701796875	0.12875083923339845	0		4.36286767578125	0.15077650451660157	0		5.5964619140625	0.11787374114990234	0		-0.15842674255371095	5.90944140625	0		
-5.389999970793724E-5	-0.007448290824890137	0		0.40443661499023437	-2.310709716796875	0		-1.0388853759765626	-0.04034532928466797	0		-0.862603759765625	-2.35219091796875	0		1.4458978271484375	-0.5405380859375	0		2.943782470703125	0.11058866882324218	0		4.3628330078125	0.15112705993652345	0		5.59646630859375	0.12024128723144531	0		-0.15854216003417967	5.909728515625	0		
-0.005002182006835937	-0.002066888093948364	0		0.4293241577148437	-2.315900634765625	0		-1.042988037109375	-0.042997493743896484	0		-0.8744959106445312	-2.345687255859375	0		1.44585986328125	-0.5402305908203126	0		2.95973193359375	0.110609375	0		4.350787109375	0.15171083068847657	0		5.58642041015625	0.12080504608154297	0		-0.15965812683105468	5.91103076171875	0		
-0.005060985088348389	-0.001788517951965332	0		0.4044040222167969	-2.310133056640625	0		-1.1011513671875	-0.04761384201049805	0		-0.8995894775390625	-2.34893896484375	0		1.45167333984375	-0.54704345703125	0		2.956555908203125	0.10499469757080078	0		4.35072607421875	0.15205950927734374	0		5.5963193359375	0.11898077392578126	0		-0.15883187866210938	5.91028759765625	0		
0.0028483710289001463	-0.0026744370460510254	0		0.43540640258789065	-2.30845654296875	0		-1.0231962890625	-0.04687066268920898	0		-0.8477448120117187	-2.35568896484375	0		1.4546895751953124	-0.5428088989257812	0		2.953967529296875	0.1303668670654297	0		4.3506533203125	0.15240220642089844	0		5.59459521484375	0.13737998962402342	0		-0.1590026092529297	5.91055322265625	0		
-0.0021519930362701415	0.0016775219440460206	0		0.40843206787109376	-2.30467236328125	0		-1.097240966796875	-0.044205398559570314	0		-0.8606630859375	-2.3491982421875	0		1.4515440673828126	-0.5464680786132813	0		2.96361474609375	0.11648558044433593	0		4.36256982421875	0.15250469970703126	0		5.60035888671875	0.12962196350097657	0		-0.1591868133544922	5.910806640625	0		
-0.0052936792373657225	-0.0010221610069274902	0		0.4571885986328125	-2.315365234375	0		-1.0392196044921875	-0.039102703094482424	0		-0.8725859985351563	-2.342741943359375	0		1.4456058349609375	-0.5390848388671875	0		2.9955029296875	0.11516600799560547	0		4.35048486328125	0.15305889892578126	0		5.60027197265625	0.12996784973144532	0		-0.159380859375	5.91104541015625	0		
-4.779430031776428E-4	-0.005891595840454102	0		0.404251708984375	-2.309111083984375	0		-1.043363037109375	-0.04181891250610351	0		-0.864822509765625	-2.352684814453125	0		1.44245263671875	-0.5427728271484376	0		2.94961474609375	0.1263328628540039	0		4.362392578125	0.15313670349121095	0		5.596029296875	0.12237899017333985	0		-0.16056106567382813	5.91228759765625	0		
-0.005466619968414307	-5.876749753952026E-4	0		0.43114767456054687	-2.312413330078125	0		-1.027585693359375	-0.04893682098388672	0		-0.8519807739257812	-2.35874169921875	0		1.45131787109375	-0.5457088012695313	0		2.938393798828125	0.11981134796142578	0		4.3551513671875	0.14556570434570312	0		5.59590234375	0.12069606018066406	0		-0.15978048706054687	5.91147412109375	0		
0.002432620048522949	-0.0015506540536880493	0		0.4103082275390625	-2.301812744140625	0		-1.0975750732421874	-0.04342165756225586	0		-0.8370950317382813	-2.36285498046875	0		1.45740087890625	-0.53760693359375	0		2.98922509765625	0.11507943725585937	0		4.355068359375	0.14584034729003906	0		5.59997314453125	0.12891627502441405	0		-0.14186257934570312	5.91731494140625	0		
0.0273392333984375	-0.0028578009605407717	0		0.4351814880371094	-2.307111328125	0		-1.0354632568359374	-0.03446185684204101	0		-0.858808837890625	-2.346279052734375	0		1.45426513671875	-0.5413485717773437	0		2.958331787109375	0.12490182495117187	0		4.350150390625	0.15418959045410155	0		5.60407275390625	0.1381160888671875	0		-0.16015577697753905	5.9118310546875	0		
-0.0026153500080108643	0.002871807098388672	0		0.40617221069335935	-2.306392822265625	0		-1.0395947265625	-0.03824832153320312	0		-0.872743408203125	-2.341871826171875	0		1.4511427001953126	-0.5451094970703125	0		2.938181396484375	0.12049414825439453	0		4.36208935546875	0.15419229125976563	0		5.5898828125	0.1316412353515625	0		-0.16129866027832032	5.913001953125	0		
-8.10886025428772E-4	-0.005027670860290528	0		0.43106787109375	-2.311726806640625	0		-1.043692626953125	-0.04105078125	0		-0.8649398803710937	-2.351900390625	0		1.45110986328125	-0.5449482421875	0		2.96895947265625	0.11108747100830078	0		4.362044921875	0.15440138244628906	0		5.60049169921875	0.11366301727294922	0		-0.16045697021484376	5.91211767578125	0		
0.002236767053604126	-9.648740291595459E-4	0		0.40413482666015627	-2.308083251953125	0		-1.0337606201171874	-0.04313581085205078	0		-0.852052001953125	-2.35803955078125	0		1.451089111328125	-0.5448065185546875	0		2.958969482421875	0.11344196319580079	0		4.3500166015625	0.15481442260742187	0		5.58496240234375	0.14016557312011718	0		-0.2787588500976563	5.903498046875	0		
-0.0027019829750061035	0.0032358260154724122	0		0.40824072265625	-2.303050048828125	0		-1.0977838134765625	-0.042817375183105466	0		-0.9327003173828124	-2.33939697265625	0		1.4572313232421874	-0.5367999877929688	0		2.953316650390625	0.13269384765625	0		4.34999853515625	0.15497134399414061	0		5.59975048828125	0.13005181884765624	0		-0.14644772338867187	5.9230703125	0		
0.0022154679298400878	-7.672770023345948E-4	0		0.4082569885253906	-2.30295458984375	0		-1.0356085205078125	-0.03392341613769531	0		-0.8587929077148437	-2.345728271484375	0		1.4482711181640624	-0.5345228881835937	0		2.96890576171875	0.11151090240478516	0		4.3499921875	0.15510354614257812	0		5.5897841796875	0.1323865203857422	0		-0.16071562194824218	5.9124306640625	0		
0.0022203350067138672	-6.881020069122314E-4	0		0.40622100830078123	-2.305833740234375	0		-1.03967919921875	-0.037774311065673825	0		-0.8628473510742187	-2.349577880859375	0		1.4510880126953125	-0.5444890747070312	0		2.995019775390625	0.11711268615722656	0		4.36199365234375	0.15498379516601563	0		5.59563427734375	0.12439163970947266	0		-0.1617329559326172	5.91352783203125	0		
-0.005745550155639648	5.32302975654602E-4	0		0.43114581298828125	-2.311240966796875	0		-1.0437220458984375	-0.04063478851318359	0		-0.8726674194335937	-2.34132470703125	0		1.4452391357421874	-0.5373008422851563	0		2.938100341796875	0.12128414154052734	0		4.36200634765625	0.15507302856445312	0		5.58980126953125	0.13260020446777343	0		-0.1617486572265625	5.9135947265625	0		
